<?xml version="1.0" encoding="UTF-8"?>
<svg version="1.1" xmlns="http://www.w3.org/2000/svg" width="1754" height="1241">
<path d="M0 0 C578.82 0 1157.64 0 1754 0 C1754 409.53 1754 819.06 1754 1241 C1175.18 1241 596.36 1241 0 1241 C0 831.47 0 421.94 0 0 Z " fill="#FEFEFE" transform="translate(0,0)"/>
<path d="M0 0 C2.72536327 2.41274807 4.12458941 4.95037611 5.75 8.1875 C8.54691064 13.47211508 11.85228252 17.71729763 16 22 C15.154375 22.928125 14.30875 23.85625 13.4375 24.8125 C2.16733167 38.08092513 -2.5052965 51.33115353 -1.27050781 68.61474609 C-0.06125362 79.27757416 3.97203156 88.85926989 11 97 C11.61875 97.71671875 12.2375 98.4334375 12.875 99.171875 C19.57984686 106.36336397 27.66307915 111.05149868 37 114 C37.99 114 38.98 114 40 114 C49.39656083 101.90002028 52.22295763 87.91706344 51 73 C49.14450246 60.0575213 43.00035117 50.25163001 34 41 C34.52787109 40.32517578 34.52787109 40.32517578 35.06640625 39.63671875 C40.27622277 32.84899436 45.30908512 25.74368416 49 18 C64.99239102 30.9938177 76.13942534 49.01111279 78.71875 69.6953125 C79.94062519 84.05234598 77.74418796 97.17530601 74 111 C75.71178921 109.94307677 77.41925897 108.87915672 79.125 107.8125 C80.07632812 107.22082031 81.02765625 106.62914062 82.0078125 106.01953125 C92.65896494 98.8306986 100.09805547 88.15357686 103.41015625 75.68359375 C106.0270223 59.34117862 104.1028754 45.31758672 94.81640625 31.41796875 C92.46109882 28.28262401 89.83697901 25.69858979 87 23 C87 21 87 21 89.25 18.6875 C90.1575 17.800625 91.065 16.91375 92 16 C96.31086948 11.2719496 99.04374499 5.6267387 102 0 C115.68500145 7.52555246 123.97802798 23.77107928 129 38 C129.3196875 38.86109375 129.639375 39.7221875 129.96875 40.609375 C135.71654678 59.02361282 132.96535504 81.47582438 124.18774414 98.35522461 C121.19025396 103.87003443 117.8785831 109.05793444 114 114 C113.48179687 114.68191406 112.96359375 115.36382813 112.4296875 116.06640625 C101.44104063 129.62968778 84.05839587 138.95565501 67 142 C66.11441406 142.18046875 65.22882813 142.3609375 64.31640625 142.546875 C42.31061722 145.55355524 21.14492292 141.00352128 3.1875 127.6875 C1.76737555 126.48648046 0.37279733 125.25484217 -1 124 C-1.88042969 123.21109375 -2.76085937 122.4221875 -3.66796875 121.609375 C-14.37087746 111.51173423 -21.58797567 100.08387374 -26 86 C-26.31839844 85.03320312 -26.63679687 84.06640625 -26.96484375 83.0703125 C-32.77221907 62.46349685 -29.11170387 41.0725521 -19.06640625 22.55859375 C-14.07313677 13.76334243 -7.24506212 6.98266551 0 0 Z " fill="#8DD2CD" transform="translate(986,549)"/>
<path d="M0 0 C0 0.66 0 1.32 0 2 C-1.87109375 3.2265625 -1.87109375 3.2265625 -4.4375 4.625 C-10.85638873 8.34119874 -16.85138361 12.77707542 -21 19 C-22.60433809 18.52140759 -24.20846416 18.04210442 -25.8125 17.5625 C-26.70582031 17.29566406 -27.59914063 17.02882813 -28.51953125 16.75390625 C-30.35473055 16.19612127 -32.18033726 15.60655425 -34 15 C-45.10766987 14.10041771 -57.001976 13.53576692 -67 19 C-67.85464844 19.44730469 -68.70929688 19.89460937 -69.58984375 20.35546875 C-82.85745606 27.79730242 -92.26651058 39.0487606 -96.53051758 53.84033203 C-99.64086636 68.14825991 -97.10325598 83.67127954 -89.5 96 C-81.15010731 108.44893092 -69.809455 116.59085408 -55 120 C-40.88061992 121.45263113 -28.05022592 119.51362825 -15.8046875 112.05078125 C-14 111 -14 111 -11 110 C-11.48210937 109.33613281 -11.96421875 108.67226563 -12.4609375 107.98828125 C-13.09257812 107.10527344 -13.72421875 106.22226562 -14.375 105.3125 C-15.00148438 104.44238281 -15.62796875 103.57226562 -16.2734375 102.67578125 C-19.5953629 97.52754845 -20.23971742 93.82488193 -20.125 87.6875 C-20.10695313 86.43324219 -20.08890625 85.17898438 -20.0703125 83.88671875 C-20.04710937 82.93410156 -20.02390625 81.98148438 -20 81 C-19.360625 81.268125 -18.72125 81.53625 -18.0625 81.8125 C-17.051875 82.204375 -16.04125 82.59625 -15 83 C-14.03078613 83.38877319 -14.03078613 83.38877319 -13.04199219 83.78540039 C-7.04630571 86.01668103 -1.6183369 86.5048221 4.75 86.4375 C5.71212402 86.43355225 6.67424805 86.42960449 7.66552734 86.42553711 C15.4275374 86.26961843 21.76495026 84.85956728 29 82 C30.32711192 81.64270064 31.65858186 81.29914254 33 81 C33.75731158 95.97794009 33.75731158 95.97794009 29 103 C28.42894531 103.92296875 27.85789062 104.8459375 27.26953125 105.796875 C22.79745046 112.83080647 17.83030326 119.05191283 12 125 C11.27554688 125.76054688 10.55109375 126.52109375 9.8046875 127.3046875 C-5.35073622 142.15186531 -25.84637945 148.3125 -46.62182617 148.3125 C-68.51211839 147.98210883 -88.47264176 138.83029578 -103.74609375 123.1875 C-121.4255748 102.9516252 -126.59048281 80.48153872 -125 54 C-122.82453367 34.55149961 -110.01244202 16.52309805 -95.59375 4.0625 C-87.74306636 -2.18021229 -79.43451921 -6.63317158 -70 -10 C-69.14792969 -10.32097656 -68.29585937 -10.64195312 -67.41796875 -10.97265625 C-44.99729292 -18.03040926 -19.15899199 -12.77266133 0 0 Z " fill="#74C79E" transform="translate(266,554)"/>
<path d="M0 0 C16.07011443 12.91829844 27.91488345 30.73762451 31.02734375 51.43359375 C32.78255427 74.70819283 29.30706191 96.92926826 13.96875 115.328125 C10.1224544 119.49945966 6.11210931 123.49676739 2.02734375 127.43359375 C-0.8939942 125.97292478 -1.26424938 123.88347711 -2.59765625 120.93359375 C-5.54625491 114.8320381 -9.21429235 110.21611178 -13.97265625 105.43359375 C-13.60914063 104.96050781 -13.245625 104.48742187 -12.87109375 104 C-11.21804805 101.82560911 -9.5914123 99.63363038 -7.97265625 97.43359375 C-7.44671875 96.72460938 -6.92078125 96.015625 -6.37890625 95.28515625 C2.56998394 82.63800022 4.66437054 68.25348207 2.56640625 53.10546875 C-0.42456026 39.66371339 -7.85602943 28.2551646 -19.34765625 20.62109375 C-33.16034885 12.34116258 -47.81042415 10.18608518 -63.671875 13.1171875 C-70.31524522 15.21006622 -76.25681395 18.48337813 -81.97265625 22.43359375 C-82.59785156 22.8615625 -83.22304687 23.28953125 -83.8671875 23.73046875 C-94.23029742 31.68409713 -100.23669633 44.73026086 -101.97265625 57.43359375 C-103.11021692 74.08135658 -98.82278393 87.72467435 -88.5234375 100.71875 C-87.06734881 102.53767686 -87.06734881 102.53767686 -84.97265625 103.43359375 C-86.5984866 107.10482357 -88.88559157 110.02626164 -91.34765625 113.18359375 C-94.83834885 117.72630455 -97.65301824 122.18919477 -99.97265625 127.43359375 C-116.20642526 114.30841881 -126.67544732 97.21396248 -129.97265625 76.43359375 C-131.43161355 58.44408602 -129.40656036 42.55723397 -120.97265625 26.43359375 C-120.555 25.61632812 -120.13734375 24.7990625 -119.70703125 23.95703125 C-108.68877499 4.01018803 -89.39115382 -8.58831826 -67.9375 -14.875 C-43.85420395 -20.49126272 -19.69923682 -14.43961364 0 0 Z " fill="#8DD2CD" transform="translate(1257.97265625,558.56640625)"/>
<path d="M0 0 C1.36089276 1.13783667 2.71565895 2.28306482 4.0625 3.4375 C4.65160156 3.88351562 5.24070312 4.32953125 5.84765625 4.7890625 C19.33765745 15.29835729 29.11025648 34.33393153 31.78125 51.05419922 C34.68706285 75.67793627 29.11011358 97.38975334 14.015625 117.08984375 C6.69028204 125.89490599 6.69028204 125.89490599 2.0625 127.4375 C1.63839844 126.591875 1.21429687 125.74625 0.77734375 124.875 C-2.77655685 118.00152192 -6.44195974 111.9664478 -11.9375 106.4375 C-10.38788007 103.01076314 -8.34288513 100.23171113 -6.0625 97.25 C3.4372318 84.32554604 5.32898769 71.1419473 4.0625 55.4375 C1.42055202 40.666609 -6.71456919 29.3279255 -18.63671875 20.59375 C-30.93996718 12.55659836 -46.50825713 10.10198352 -60.97216797 12.81982422 C-69.29836039 14.96292492 -76.36368575 18.98996861 -82.9375 24.4375 C-83.63359375 24.98664062 -84.3296875 25.53578125 -85.046875 26.1015625 C-93.8593525 33.85517642 -100.29993964 47.53837552 -101.23828125 59.1640625 C-101.29292492 77.34218957 -96.84391851 90.55160248 -84.9375 104.4375 C-86.49416295 107.87178734 -88.54034942 110.6865464 -90.8125 113.6875 C-94.08648773 118.1222652 -96.6670438 122.42357588 -98.9375 127.4375 C-114.74117717 117.68629494 -123.27628876 99.58930627 -127.50170898 82.10253906 C-132.13408306 60.85128963 -128.10246934 39.95274083 -116.9375 21.4375 C-114.4927359 17.87221902 -111.84104382 14.63721587 -108.9375 11.4375 C-108.19886719 10.60605469 -107.46023438 9.77460937 -106.69921875 8.91796875 C-97.3450086 -1.04862831 -85.88440961 -8.19548684 -72.9375 -12.5625 C-71.53757812 -13.04009766 -71.53757812 -13.04009766 -70.109375 -13.52734375 C-46.44052916 -20.25003949 -19.49175788 -14.86492646 0 0 Z " fill="#74C79E" transform="translate(914.9375,554.5625)"/>
<path d="M0 0 C2.69625423 1.34812712 2.9541013 2.77221039 4.1875 5.5 C6.81444062 10.93370159 10.39052368 18.19526184 16 21 C14.63710651 24.04646779 13.06976355 26.11754013 10.75 28.5 C1.01573832 39.41294054 -1.62478565 51.83180568 -1.2421875 66.0078125 C-0.34203641 80.8457869 6.12302984 93.37356957 16.89453125 103.55078125 C30.06402535 113.93728792 44.66773774 116.31711792 61 115 C74.48769925 112.58756599 86.61622051 105.25130896 94.6875 94.1875 C103.89636305 80.43614845 106.210822 65.36050481 103.3125 49.15625 C100.39676183 38.95116641 95.09933789 30.77546531 88 23 C89.55666295 19.56571266 91.60284942 16.7509536 93.875 13.75 C97.14898773 9.3152348 99.7295438 5.01392412 102 0 C117.34397007 8.82278279 126.20221602 27.44019136 130.8125 43.875 C135.5401796 66.35173958 131.08930444 87.63778019 119.203125 106.9140625 C117.55329159 109.35854044 115.83015664 111.68801008 114 114 C113.39671875 114.76699219 112.7934375 115.53398438 112.171875 116.32421875 C100.36739742 130.45600187 81.34765944 140.83481831 63 143 C40.56690166 144.75179154 18.78907933 140.84294261 1.14453125 125.96484375 C0.43683594 125.31644531 -0.27085938 124.66804687 -1 124 C-1.90363281 123.17628906 -2.80726562 122.35257813 -3.73828125 121.50390625 C-9.97408921 115.55499609 -14.80063382 109.51465527 -19 102 C-19.44859375 101.2471875 -19.8971875 100.494375 -20.359375 99.71875 C-30.7076479 81.06630749 -31.65385736 58.91422949 -26.0703125 38.62109375 C-20.90167343 22.66960419 -12.22601533 11.20560602 0 0 Z " fill="#8ED2CD" transform="translate(1328,549)"/>
<path d="M0 0 C3.57014683 3.12591004 6.67260114 6.50428067 9.57421875 10.25390625 C6.4305536 12.74169882 3.13550273 14.67876436 -0.36328125 16.62890625 C-4.71491999 19.13149703 -8.18385257 21.43306173 -11.42578125 25.25390625 C-14.85251811 23.70428632 -17.63157012 21.65929138 -20.61328125 19.37890625 C-33.53773521 9.87917445 -46.72133395 7.98741856 -62.42578125 9.25390625 C-71.02361079 10.79172942 -78.30466734 14.27039136 -85.42578125 19.25390625 C-86.03808594 19.65867187 -86.65039062 20.0634375 -87.28125 20.48046875 C-96.32605593 27.22785258 -103.51657539 40.27913349 -105.42578125 51.25390625 C-106.9993202 67.12550184 -104.44063462 81.96499725 -94.45703125 94.78125 C-85.74776842 104.97783412 -74.98360492 112.60322731 -61.42578125 114.25390625 C-58.57102617 114.42174827 -55.72260612 114.48069242 -52.86328125 114.50390625 C-52.15510254 114.51317139 -51.44692383 114.52243652 -50.71728516 114.53198242 C-38.29999086 114.45863496 -25.91553817 109.23341209 -16.8203125 100.7578125 C-16.38074219 100.30277344 -15.94117188 99.84773437 -15.48828125 99.37890625 C-14.80765625 98.67765625 -14.12703125 97.97640625 -13.42578125 97.25390625 C-12.76578125 97.25390625 -12.10578125 97.25390625 -11.42578125 97.25390625 C-10.83539062 98.00414062 -10.245 98.754375 -9.63671875 99.52734375 C-7.30871498 102.3982742 -5.18647832 103.95532738 -2.05078125 105.87890625 C-1.08785156 106.47058594 -0.12492187 107.06226563 0.8671875 107.671875 C3.72411976 109.34151073 6.5688285 110.87305127 9.57421875 112.25390625 C-4.23374404 129.33217602 -22.3455496 140.21436101 -44.35839844 142.56738281 C-66.24172327 144.00129182 -87.24369838 138.92980291 -104.125 124.375 C-104.88425781 123.67503906 -105.64351562 122.97507812 -106.42578125 122.25390625 C-107.27785156 121.48175781 -108.12992188 120.70960938 -109.0078125 119.9140625 C-114.94850262 114.27619616 -119.41923059 108.38351178 -123.42578125 101.25390625 C-123.88726563 100.44179688 -124.34875 99.6296875 -124.82421875 98.79296875 C-134.45002491 80.76645904 -136.77456005 57.77670871 -130.8203125 38.140625 C-127.18971834 27.47660197 -121.82230617 17.7501543 -114.42578125 9.25390625 C-113.98105469 8.66738281 -113.53632812 8.08085938 -113.078125 7.4765625 C-102.53391898 -6.08027382 -83.57469945 -15.75497143 -66.75732422 -18.46484375 C-41.74901671 -21.48155268 -19.77905359 -15.51562867 0 0 Z " fill="#8ED2CD" transform="translate(1603.42578125,559.74609375)"/>
<path d="M0 0 C1.22658459 0.99882951 2.43348188 2.02208917 3.625 3.0625 C4.50285156 3.81015625 5.38070312 4.5578125 6.28515625 5.328125 C13.46806841 11.59170522 13.46806841 11.59170522 14.625 15.0625 C13.779375 15.48660156 12.93375 15.91070313 12.0625 16.34765625 C5.18902192 19.90155685 -0.8460522 23.56695974 -6.375 29.0625 C-9.80173686 27.51288007 -12.58078887 25.46788513 -15.5625 23.1875 C-28.42691307 13.74447339 -41.74649432 11.73973185 -57.375 13.0625 C-70.67205062 15.48515105 -82.94840135 22.66158609 -90.859375 33.6953125 C-99.62036145 47.37870887 -102.80899929 61.69515226 -99.65234375 77.734375 C-95.18578025 93.1413066 -86.22041644 104.81514711 -72.375 113.0625 C-64.81533805 117.04767391 -57.37113166 118.3928841 -48.9375 118.3125 C-48.12990234 118.32023438 -47.32230469 118.32796875 -46.49023438 118.3359375 C-31.62018844 118.28800826 -19.54045243 111.427073 -8.375 102.0625 C-4.94071266 103.61916295 -2.1259536 105.66534942 0.875 107.9375 C5.3097652 111.21148773 9.61107588 113.7920438 14.625 116.0625 C3.5720554 132.95643159 -15.00964981 140.79774626 -33.86328125 145.7109375 C-56.09685626 148.82294644 -78.05185112 143.80225211 -96.203125 130.609375 C-105.32293037 123.46871358 -112.8741559 115.30731529 -118.375 105.0625 C-118.99246094 103.92039062 -119.60992188 102.77828125 -120.24609375 101.6015625 C-129.5130077 83.63587615 -131.6768228 61.39446435 -125.76953125 41.94921875 C-122.13893709 31.28519572 -116.77152492 21.55874805 -109.375 13.0625 C-108.93027344 12.47597656 -108.48554687 11.88945313 -108.02734375 11.28515625 C-97.45015754 -2.31408316 -78.50673777 -11.91698086 -61.65478516 -14.65625 C-39.48309301 -17.39150266 -18.27577906 -13.14830598 0 0 Z " fill="#74C79E" transform="translate(761.375,555.9375)"/>
<path d="M0 0 C8.80506224 7.32534296 8.80506224 7.32534296 10.34765625 11.953125 C9.50203125 12.37722656 8.65640625 12.80132813 7.78515625 13.23828125 C0.91167817 16.79218185 -5.12339595 20.45758474 -10.65234375 25.953125 C-14.07908061 24.40350507 -16.85813262 22.35851013 -19.83984375 20.078125 C-32.76429771 10.5783932 -45.94789645 8.68663731 -61.65234375 9.953125 C-75.05755919 12.35080581 -87.15854515 19.64830151 -95.27734375 30.578125 C-104.23766739 43.897525 -106.27543193 57.75245369 -104.19140625 73.41796875 C-100.93784503 87.98243984 -91.92105062 100.321577 -79.41796875 108.4140625 C-67.02502447 115.31070098 -53.24616884 117.3635962 -39.359375 114.03515625 C-30.48730805 111.44552238 -21.77529362 107.29893702 -15.33984375 100.515625 C-14.78296875 100 -14.22609375 99.484375 -13.65234375 98.953125 C-9.88853063 99.30117654 -7.81174491 101.29058197 -5.02734375 103.703125 C-0.22961531 107.67267412 4.67007551 110.44049352 10.34765625 112.953125 C-0.50342356 129.53851528 -19.28485849 138.21165803 -38.09277344 142.51098633 C-59.53428279 146.21478006 -80.68248835 141.08218477 -98.52734375 129.0078125 C-101.0156404 127.08715852 -103.34155927 125.08344074 -105.65234375 122.953125 C-106.50441406 122.18097656 -107.35648437 121.40882813 -108.234375 120.61328125 C-123.06553679 106.5381307 -131.62535379 87.20230966 -133 66.84375 C-133.47542795 45.92492008 -128.00662854 27.24535245 -114.65234375 10.953125 C-113.84023438 9.89738281 -113.84023438 9.89738281 -113.01171875 8.8203125 C-84.99504385 -25.86052293 -33.45220993 -25.63155753 0 0 Z " fill="#74C79D" transform="translate(612.65234375,559.046875)"/>
<path d="M0 0 C15.24527689 12.53175925 27.62396626 30.83184067 30.35351562 50.72216797 C30.56303762 55.42212733 30.4947926 60.0129356 30.35351562 64.72216797 C16.98851562 65.21716797 16.98851562 65.21716797 3.35351562 65.72216797 C3.02351562 61.43216797 2.69351563 57.14216797 2.35351562 52.72216797 C-0.84530494 40.11194146 -7.89541115 28.21629842 -18.64648438 20.72216797 C-33.02835009 12.37672755 -46.91814341 9.40313276 -63.41992188 12.40966797 C-70.49625719 14.42667566 -76.63027038 17.51188677 -82.64648438 21.72216797 C-83.25878906 22.12693359 -83.87109375 22.53169922 -84.50195312 22.94873047 C-93.2772551 29.49506558 -100.09785901 41.87877044 -102.18945312 52.47216797 C-104.24949764 67.12137339 -102.47737842 82.43859355 -93.64648438 94.72216797 C-88.22631199 101.34414756 -88.22631199 101.34414756 -81.64648438 106.72216797 C-83.05962514 109.82690088 -84.78141588 112.23022313 -86.95898438 114.84716797 C-90.64055905 119.47609345 -93.21307534 124.35072591 -95.64648438 129.72216797 C-100.60212691 128.2391597 -103.48935552 125.38295317 -107.02148438 121.78466797 C-107.59656738 121.20056152 -108.17165039 120.61645508 -108.76416016 120.01464844 C-124.42158481 103.71941073 -131.21714112 83.21078965 -131.06420898 60.97143555 C-130.5593418 42.54140916 -123.7630246 25.64020817 -111.64648438 11.72216797 C-111.20175781 11.13564453 -110.75703125 10.54912109 -110.29882812 9.94482422 C-99.72722487 -3.64723711 -80.7836172 -13.25718366 -63.93945312 -16.00097656 C-41.24002431 -18.74172957 -18.34741312 -14.23937726 0 0 Z " fill="#74C79E" transform="translate(439.646484375,557.27783203125)"/>
<path d="M0 0 C7.00566938 4.76289054 11.30280481 10.65949794 13 19 C13.25057397 22.83967767 13.22850222 26.31449333 12 30 C11.443125 29.80664062 10.88625 29.61328125 10.3125 29.4140625 C9.549375 29.15367187 8.78625 28.89328125 8 28.625 C6.88625 28.24214844 6.88625 28.24214844 5.75 27.8515625 C-1.26384353 25.67966209 -7.41925288 24.61303545 -14.75 24.625 C-16.06291016 24.62415405 -16.06291016 24.62415405 -17.40234375 24.62329102 C-24.52853417 24.74368363 -30.43005345 26.23662721 -37 29 C-38.32619919 29.36067242 -39.65770449 29.70481928 -41 30 C-41.6584855 19.84469034 -41.24151441 12.14614126 -34.4609375 4.1953125 C-24.4717257 -5.32047694 -11.84280672 -6.46491381 0 0 Z " fill="#8FD2CD" transform="translate(1223,600)"/>
<path d="M0 0 C0.55042969 0.391875 1.10085938 0.78375 1.66796875 1.1875 C2.71984375 1.909375 3.77171875 2.63125 4.85546875 3.375 C9.6879774 8.20750865 13.34764578 14.27902153 13.80078125 21.22265625 C13.78828803 24.46464704 13.6994915 27.09293175 12.66796875 30.1875 C12.02730469 29.99414062 11.38664063 29.80078125 10.7265625 29.6015625 C9.86160156 29.34117187 8.99664063 29.08078125 8.10546875 28.8125 C7.25855469 28.55726563 6.41164063 28.30203125 5.5390625 28.0390625 C4.59160156 27.75804687 3.64414062 27.47703125 2.66796875 27.1875 C1.61222656 26.83171875 0.55648437 26.4759375 -0.53125 26.109375 C-5.27884177 24.95785223 -9.71367757 24.80508338 -14.58203125 24.8125 C-15.51136475 24.81193604 -16.44069824 24.81137207 -17.39819336 24.81079102 C-24.4072696 24.92305893 -29.9795905 26.18606215 -36.33203125 29.1875 C-37.65681189 29.55334851 -38.98848325 29.89807356 -40.33203125 30.1875 C-40.95446024 21.36284008 -40.65291432 14.50050113 -35.33203125 7.1875 C-26.4186815 -2.67685568 -12.20730587 -7.49617077 0 0 Z " fill="#76C79F" transform="translate(574.33203125,596.8125)"/>
<path d="M0 0 C0.55042969 0.391875 1.10085938 0.78375 1.66796875 1.1875 C2.71984375 1.909375 3.77171875 2.63125 4.85546875 3.375 C9.78096237 8.30049362 13.39093779 14.41278991 13.80078125 21.4765625 C13.79820312 22.24742187 13.795625 23.01828125 13.79296875 23.8125 C13.79683594 24.97652344 13.79683594 24.97652344 13.80078125 26.1640625 C13.66796875 28.1875 13.66796875 28.1875 12.66796875 30.1875 C12.02730469 29.99414062 11.38664063 29.80078125 10.7265625 29.6015625 C9.86160156 29.34117187 8.99664063 29.08078125 8.10546875 28.8125 C7.25855469 28.55726563 6.41164063 28.30203125 5.5390625 28.0390625 C4.59160156 27.75804687 3.64414062 27.47703125 2.66796875 27.1875 C1.61222656 26.83171875 0.55648437 26.4759375 -0.53125 26.109375 C-5.27884177 24.95785223 -9.71367757 24.80508338 -14.58203125 24.8125 C-15.51136475 24.81193604 -16.44069824 24.81137207 -17.39819336 24.81079102 C-24.4072696 24.92305893 -29.9795905 26.18606215 -36.33203125 29.1875 C-37.65681189 29.55334851 -38.98848325 29.89807356 -40.33203125 30.1875 C-40.95446024 21.36284008 -40.65291432 14.50050113 -35.33203125 7.1875 C-26.4186815 -2.67685568 -12.20730587 -7.49617077 0 0 Z " fill="#76C79F" transform="translate(727.33203125,596.8125)"/>
<path d="M0 0 C0.82757812 0.59167969 0.82757812 0.59167969 1.671875 1.1953125 C2.744375 1.9584375 3.816875 2.7215625 4.921875 3.5078125 C9.85384898 8.32769616 12.559856 13.48524322 12.76953125 20.4296875 C12.75792969 21.58984375 12.74632812 22.75 12.734375 23.9453125 C12.72535156 25.11578125 12.71632813 26.28625 12.70703125 27.4921875 C12.69542969 28.38421875 12.68382812 29.27625 12.671875 30.1953125 C12.03121094 30.00195312 11.39054687 29.80859375 10.73046875 29.609375 C9.86550781 29.34898437 9.00054688 29.08859375 8.109375 28.8203125 C7.26246094 28.56507813 6.41554688 28.30984375 5.54296875 28.046875 C4.59550781 27.76585937 3.64804688 27.48484375 2.671875 27.1953125 C1.61613281 26.83953125 0.56039063 26.48375 -0.52734375 26.1171875 C-5.27493552 24.96566473 -9.70977132 24.81289588 -14.578125 24.8203125 C-15.5074585 24.81974854 -16.43679199 24.81918457 -17.39428711 24.81860352 C-24.40336335 24.93087143 -29.97568425 26.19387465 -36.328125 29.1953125 C-37.65290564 29.56116101 -38.984577 29.90588606 -40.328125 30.1953125 C-40.95055399 21.37065258 -40.64900807 14.50831363 -35.328125 7.1953125 C-26.4069423 -2.67771187 -12.22267671 -7.46941355 0 0 Z " fill="#8FD2CD" transform="translate(1564.328125,596.8046875)"/>
<path d="M0 0 C0.66 0.33 1.32 0.66 2 1 C-2.62 5.62 -7.24 10.24 -12 15 C-12 11.11566834 -10.82920314 10.32394504 -8.25 7.5 C-7.55390625 6.7265625 -6.8578125 5.953125 -6.140625 5.15625 C-4.19891408 3.20036601 -2.25069252 1.58156772 0 0 Z " fill="#EAFBF4" transform="translate(190,577)"/>
<path d="M0 0 C0.66 0.33 1.32 0.66 2 1 C1.07316406 1.91523437 0.14632812 2.83046875 -0.80859375 3.7734375 C-2.01836039 4.9738261 -3.22798865 6.17435417 -4.4375 7.375 C-5.04916016 7.97828125 -5.66082031 8.5815625 -6.29101562 9.203125 C-7.1659668 10.07324219 -7.1659668 10.07324219 -8.05859375 10.9609375 C-8.59798584 11.49509277 -9.13737793 12.02924805 -9.69311523 12.57958984 C-11.10846977 13.98652388 -11.10846977 13.98652388 -12 16 C-12.66 15.67 -13.32 15.34 -14 15 C-9.71924631 9.4045986 -5.65596939 4.24197704 0 0 Z " fill="#E6F9F1" transform="translate(529,577)"/>
<path d="M0 0 C0.66 0.33 1.32 0.66 2 1 C-2.62 5.62 -7.24 10.24 -12 15 C-12.66 14.67 -13.32 14.34 -14 14 C-9.61932717 8.89662734 -5.32423478 4.12628195 0 0 Z " fill="#9DD2CF" transform="translate(1501,557)"/>
<path d="M0 0 C0.66 0.33 1.32 0.66 2 1 C-2.29 5.29 -6.58 9.58 -11 14 C-11 9.40845608 -8.09282279 7.18698368 -5 4 C-3.3719908 2.61973133 -1.71956118 1.26438322 0 0 Z " fill="#ECFBFA" transform="translate(1177,579)"/>
<path d="M0 0 C0.66 0.33 1.32 0.66 2 1 C-2.29 5.29 -6.58 9.58 -11 14 C-11 9.40845608 -8.09282279 7.18698368 -5 4 C-3.3719908 2.61973133 -1.71956118 1.26438322 0 0 Z " fill="#EAFAF9" transform="translate(1519,577)"/>
<path d="M0 0 C0.66 0.33 1.32 0.66 2 1 C-2.29 5.29 -6.58 9.58 -11 14 C-11 9.82308582 -8.77013484 7.86318847 -6 5 C-4.05228995 3.24842937 -2.05675499 1.62627139 0 0 Z " fill="#E6F9F1" transform="translate(358,577)"/>
<path d="M0 0 C0.66 0.33 1.32 0.66 2 1 C-1.63 4.63 -5.26 8.26 -9 12 C-9.66 11.67 -10.32 11.34 -11 11 C-7.6381774 6.74828319 -4.25171681 3.3618226 0 0 Z " fill="#E9FAF3" transform="translate(682,577)"/>
<path d="M0 0 C0.66 0.66 1.32 1.32 2 2 C-0.97 4.97 -3.94 7.94 -7 11 C-7.66 10.67 -8.32 10.34 -9 10 C-6.03 6.7 -3.06 3.4 0 0 Z " fill="#8AC9A9" transform="translate(505,562)"/>
<path d="M0 0 C-1.5830577 4.2742558 -4.50568404 6.26531794 -8 9 C-6.68994234 5.06982701 -4.75047804 0 0 0 Z " fill="#9ED3CE" transform="translate(1193,602)"/>
</svg>
